{"title":"Seven Samurai - Shichinin no Samurai*1954*[DVD5][PAL][JPN, POL]","uid":5860423,"size":4687691776,"categoryP":"video","categoryS":"movies_dvdr","magnet":"?xt=urn:btih:1dfa1fb0e6085b6b22555d87ca29849f78d10775&amp;dn=Seven+Samurai+-+Shichinin+no+Samurai%2A1954%2A%5BDVD5%5D%5BPAL%5D%5BJPN%2C+POL%5D&amp;tr=udp%3A%2F%2Ftracker.openbittorrent.com%3A80&amp;tr=udp%3A%2F%2Fopen.demonii.com%3A1337&amp;tr=udp%3A%2F%2Ftracker.coppersurfer.tk%3A6969&amp;tr=udp%3A%2F%2Fexodus.desync.com%3A6969","seeders":0,"leechers":2,"uploader":"albedo040","files":1,"time":1285947061,"description":"Seven Samurai - Shichinin no Samurai*1954*[DVD5][PAL][JPN, POL]\n\nGeneral information:\nCountry: Japan\nRelease: 26 April 1954\nGenre: Action, Adventure, Drama \nDirector: Akira Kurosawa\nScreenplay: Akira Kurosawa, Shinobu Hashimoto, Hideo Oguni\nOriginal Music: Fumio Hayasaka\nCinematography by: Asakazu Nakai\nDuration: 3h 21mn\nLanguage: Japanese, Polish \nSubtitles: Polish\nRating: 8.4/10 - 12248 votes\n\n\nCast:\nToshirÃƒÂ´ Mifune  ...  Kikuchiyo  \nTakashi Shimura  ...  Kanbe Shimada  \nKeiko Tsushima  ...  Shino  \nYukiko Shimazaki  ...  Rikichi's Wife  \nKamatari Fujiwara  ...  ManzÃƒÂ´ - Father of Shino  \nDaisuke KatÃƒÂ´  ...  ShichirÃƒÂ´ji  \nIsao Kimura  ...  KatsushirÃƒÂ´ Okamoto  \nMinoru Chiaki  ...  Heihachi Hayashida  \nSeiji Miyaguchi  ...  KyuzÃƒÂ´  \nYoshio Kosugi  ...  Mosuke  \nBokuzen Hidari  ...  Yohei  \nYoshio Inaba  ...  Gorobe Katayama  \nYoshio Tsuchiya  ...  Rikichi  \nKokuten KÃƒÂ´dÃƒÂ´  ...  Gisaku, the Old Man  \nEijirÃƒÂ´ TÃƒÂ´no  ...  Kidnapper  \n\nPlot:\nA poor village under attack by bandits recruits seven unemployed samurai to help them defend themselves. \n\nSpecifications:\nGeneral\nFormat                           : MPEG-PS\nOverall bit rate                 : 2 971 Kbps\n\nVideo\nFormat                           : MPEG Video\nFormat version                   : Version 2\nFormat settings, BVOP            : Yes\nFormat settings, Matrix          : Default\nFormat settings, GOP             : M=3, N=12\nBit rate mode                    : Variable\nBit rate                         : 2 239 Kbps\nNominal bit rate                 : 8 000 Kbps\nWidth                            : 720 pixels\nHeight                           : 576 pixels\nDisplay aspect ratio             : 4:3\nFrame rate                       : 25.000 fps\nStandard                         : PAL\n\nAudio 1\nFormat                           : AC-3\nFormat/Info                      : Audio Coding 3\nMode extension                   : CM (complete main)\nBit rate mode                    : Constant\nBit rate                         : 448 Kbps\nChannel(s)                       : 6 channels\nChannel positions                : Front: L C R, Side: L R, LFE\nSampling rate                    : 48.0 KHz\nVideo delay                      : -352ms\nStream size                      : 154 MiB (15%)\n\nAudio 2\nFormat                           : AC-3\nFormat/Info                      : Audio Coding 3\nMode extension                   : CM (complete main)\nBit rate mode                    : Constant\nBit rate                         : 224 Kbps\nChannel(s)                       : 2 channels\nChannel positions                : Front: L R\nSampling rate                    : 48.0 KHz\nVideo delay                      : -320ms\nStream size                      : 77.2 MiB (8%)\n\nText\nFormat                           : RLE\nFormat/Info                      : Run-length encoding\n","torrent":{"xt":"urn:btih:1dfa1fb0e6085b6b22555d87ca29849f78d10775","amp;dn":"Seven+Samurai+-+Shichinin+no+Samurai%2A1954%2A%5BDVD5%5D%5BPAL%5D%5BJPN%2C+POL%5D","amp;tr":["udp%3A%2F%2Ftracker.openbittorrent.com%3A80","udp%3A%2F%2Fopen.demonii.com%3A1337","udp%3A%2F%2Ftracker.coppersurfer.tk%3A6969","udp%3A%2F%2Fexodus.desync.com%3A6969"],"infoHash":"1dfa1fb0e6085b6b22555d87ca29849f78d10775","infoHashBuffer":{"type":"Buffer","data":[29,250,31,176,230,8,91,107,34,85,93,135,202,41,132,159,120,209,7,117]},"announce":[],"urlList":[]}}